<svg xmlns="http://www.w3.org/2000/svg" xmlns:xlink="http://www.w3.org/1999/xlink">
   <symbol id="airplane" viewBox="0 0 19.402 19.402"><path stroke-width="2" d="M7.787 13.702l2.983-2.982 5.37 7.159 2.088-2.089-3.58-8.948 2.818-2.818a1.87 1.87 0 00.432-2.52 1.87 1.87 0 00-2.521.432L12.56 4.753l-8.949-3.58-2.088 2.088 7.16 5.37L5.7 11.614H1.528v2.088l3.132 1.044 1.044 3.132h2.083v-4.176z"/></symbol>
   <symbol id="arrow-with-tail" viewBox="0 0 20.023 16.828"><g stroke-linecap="round" stroke-linejoin="round" stroke-width="2" data-name="arrow with tail"><path d="M1 8.414h18.023" data-name="&#x41A;&#x43E;&#x43D;&#x442;&#x443;&#x440; 27"/><path d="M12.023 1.414l7 7-7 7" data-name="&#x41A;&#x43E;&#x43D;&#x442;&#x443;&#x440; 28"/></g></symbol>
   <symbol id="arrow-down" viewBox="0 0 14 9"><path stroke-linecap="round" stroke-linejoin="round" stroke-width="2" d="M12.833 1.5L7 7.333 1.166 1.5"/></symbol>
   <symbol id="arrow" viewBox="0 0 5.707 11.414"><path d="M5.707 5.707l-2-2.5-2.573-3.21L.001 1.411l3.44 4.293-3.44 4.293 1.133 1.414z"/></symbol>
   
   <symbol id="cart" viewBox="0 0 23.209 23"><g stroke-width="2"><path d="M8 22a1 1 0 10-1-1 1 1 0 001 1z" data-name="&#x41A;&#x43E;&#x43D;&#x442;&#x443;&#x440; 16"/><path d="M19 22a1 1 0 10-1-1 1 1 0 001 1z" data-name="&#x41A;&#x43E;&#x43D;&#x442;&#x443;&#x440; 17"/><path d="M0 1h4l2.68 13.39a2 2 0 002 1.61h9.72a2 2 0 002-1.61L22 6H5" data-name="&#x41A;&#x43E;&#x43D;&#x442;&#x443;&#x440; 18"/></g></symbol>
   <symbol id="favorite" viewBox="0 0 21 19.6"><path d="M16.531.119a5.593 5.593 0 00-6.032 2.741A5.593 5.593 0 004.468.119a6.07 6.07 0 00-3.164 1.86C-4.035 8.439 8.619 18.229 10.5 19.6c1.879-1.469 14.535-11.161 9.2-17.623A6.07 6.07 0 0016.531.119zM10.5 17.152C6.841 14.219 1.996 9.319 1.996 5.599a3.572 3.572 0 013.659-3.622 2.763 2.763 0 01.89.1 4.093 4.093 0 012.374 1.858 12.658 12.658 0 01.494 1.371l.1.783h1.976l.2-.783a7.625 7.625 0 01.494-1.371 4.093 4.093 0 012.373-1.86 3.511 3.511 0 014.348 2.644 2.685 2.685 0 01.1.881c-.001 3.719-4.846 8.619-8.504 11.552z"/></symbol>
   <symbol id="info" viewBox="0 0 7.044 16"><path d="M6.827 14.303c-.39.083-.74.187-1.1.229-1.013.117-1.456-.332-1.272-1.327.142-.772.355-1.531.546-2.294a17.173 17.173 0 00.725-3.184A2.02 2.02 0 004.48 5.635a3.415 3.415 0 00-1.773-.193 10.24 10.24 0 00-2.37.732c-.051.019-.121.056-.132.1-.074.269-.134.543-.207.852l.482-.154a2.425 2.425 0 011.277-.081c.342.073.548.241.565.591a4.534 4.534 0 01-.077 1.23c-.2.89-.463 1.768-.71 2.647a10.124 10.124 0 00-.475 2.408 1.974 1.974 0 001.247 1.968 3.362 3.362 0 002.094.172c.721-.171 1.412-.46 2.115-.7a.215.215 0 00.118-.117c.073-.262.131-.523.193-.787zM3.02 1.794a4.748 4.748 0 00.263.883 2.014 2.014 0 002.195 1 1.869 1.869 0 001.54-2.154A1.973 1.973 0 005.14-.004a2.05 2.05 0 00-2.12 1.798z"/></symbol>
   <symbol id="clock" viewBox="0 0 22 22"><g stroke-linejoin="round" stroke-width="2"><path d="M21 11A10 10 0 1111 1a10 10 0 0110 10z" data-name="&#x41A;&#x43E;&#x43D;&#x442;&#x443;&#x440; 43"/><path d="M11 5v6l5 3" data-name="&#x41A;&#x43E;&#x43D;&#x442;&#x443;&#x440; 44"/></g></symbol>
   <symbol id="warning" viewBox="0 0 14 12.657"><path d="M1.109 12.657H12.9a1.1 1.1 0 00.982-1.6L7.985.609a1.105 1.105 0 00-1.976 0L.115 11.051a1.112 1.112 0 00.994 1.606zm6.82-2.428a.96.96 0 01-1.919 0v-.023a.96.96 0 111.919 0zm-1.48-7.057h1.107a.478.478 0 01.452.587l-.486 4.245a.52.52 0 01-1.039 0L6 3.759a.478.478 0 01.449-.587z" data-name="&#x41A;&#x43E;&#x43D;&#x442;&#x443;&#x440; 1211"/></symbol>
   <symbol id="order done" viewBox="0 0 21.707 20.947"><g stroke-width="2" data-name="order done"><path d="M6.316 8.421l4.158 4.158L21 2.053" data-name="&#x41A;&#x43E;&#x43D;&#x442;&#x443;&#x440; 45"/><path stroke-linejoin="round" d="M19.947 10.474v9.474H1V1h13.684" data-name="&#x41A;&#x43E;&#x43D;&#x442;&#x443;&#x440; 46"/></g></symbol>
   <symbol id="edit" viewBox="0 0 24.923 24.923"><g stroke-width="2"><path d="M23.509 5.73L7.736 21.506l-6.224 1.909 1.909-6.224L19.197 1.415z" data-name="&#x41A;&#x43E;&#x43D;&#x442;&#x443;&#x440; 31"/><path d="M7.684 21.864l-4.619-4.768" data-name="&#x41A;&#x43E;&#x43D;&#x442;&#x443;&#x440; 35"/><path d="M20.684 8.864l-4.619-4.768" data-name="&#x41A;&#x43E;&#x43D;&#x442;&#x443;&#x440; 36"/></g></symbol>
   <symbol id="log-out" viewBox="0 0 22.255 21.841"><g stroke-width="2"><path d="M7.614 20.841H1V1h6.614" data-name="&#x41A;&#x43E;&#x43D;&#x442;&#x443;&#x440; 47"/><path d="M15.329 16.432l5.511-5.511-5.511-5.512" data-name="&#x41A;&#x43E;&#x43D;&#x442;&#x443;&#x440; 48"/><path stroke-linejoin="round" d="M20.841 10.92H7.614" data-name="&#x41A;&#x43E;&#x43D;&#x442;&#x443;&#x440; 49"/></g></symbol>
   <symbol id="instagram" viewBox="0 0 26 25.994"><path d="M13.005 6.332a6.665 6.665 0 106.665 6.665 6.654 6.654 0 00-6.665-6.665zm0 11a4.333 4.333 0 114.333-4.333 4.341 4.341 0 01-4.333 4.331zm8.489-11.27a1.554 1.554 0 11-1.554-1.554 1.551 1.551 0 011.554 1.554zm4.411 1.575a7.693 7.693 0 00-2.1-5.447 7.743 7.743 0 00-5.447-2.1c-2.146-.122-8.579-.122-10.725 0a7.732 7.732 0 00-5.442 2.095 7.718 7.718 0 00-2.1 5.447c-.122 2.146-.122 8.579 0 10.725a7.693 7.693 0 002.1 5.447 7.753 7.753 0 005.447 2.1c2.146.122 8.579.122 10.725 0a7.693 7.693 0 005.447-2.1 7.743 7.743 0 002.1-5.447c.122-2.146.122-8.573 0-10.719zm-2.769 13.025a4.387 4.387 0 01-2.471 2.471c-1.711.679-5.771.522-7.662.522s-5.957.151-7.662-.522a4.387 4.387 0 01-2.472-2.471c-.679-1.711-.522-5.771-.522-7.662s-.151-5.957.522-7.662A4.387 4.387 0 015.34 2.862c1.711-.677 5.772-.52 7.665-.52s5.957-.151 7.662.522a4.387 4.387 0 012.471 2.471c.679 1.711.522 5.771.522 7.662s.154 5.957-.524 7.665z"/></symbol>
   <symbol id="katalog" viewBox="0 0 20 20"><path d="M0 0h3.6v3.6H0zm8.2 0h3.6v3.6H8.2zm8.2 0H20v3.6h-3.6zM0 8.2h3.6v3.6H0zm8.2 0h3.6v3.6H8.2zm8.2 0H20v3.6h-3.6zM0 16.4h3.6V20H0zm8.2 0h3.6V20H8.2zm8.2 0H20V20h-3.6z" data-name="katalog"/></symbol>
   <symbol id="mail" viewBox="0 0 20.785 16.4"><g stroke-linecap="round" stroke-linejoin="round" stroke-width="2"><path d="M3.193 1h14.4a1.805 1.805 0 011.8 1.8v10.8a1.805 1.805 0 01-1.8 1.8h-14.4a1.805 1.805 0 01-1.8-1.8V2.8a1.805 1.805 0 011.8-1.8z" data-name="&#x41A;&#x43E;&#x43D;&#x442;&#x443;&#x440; 25"/><path d="M19.393 2.8l-9 6.3-9-6.3" data-name="&#x41A;&#x43E;&#x43D;&#x442;&#x443;&#x440; 26"/></g></symbol>
   <symbol id="map-pin" viewBox="0 0 18.364 22"><g stroke-linecap="round" stroke-linejoin="round" stroke-width="2"><path d="M17.364 9.182C17.364 15.546 9.182 21 9.182 21S1 15.545 1 9.182a8.182 8.182 0 1116.364 0z" data-name="&#x41A;&#x43E;&#x43D;&#x442;&#x443;&#x440; 23"/><path d="M11.91 9.182a2.727 2.727 0 11-2.728-2.727 2.727 2.727 0 012.727 2.727z" data-name="&#x41A;&#x43E;&#x43D;&#x442;&#x443;&#x440; 24"/></g></symbol>
   <symbol id="phone" viewBox="0 0 20.001 20.002"><path stroke-linecap="round" stroke-linejoin="round" stroke-width="2" d="M19 14.476v2.71a1.809 1.809 0 01-1.973 1.806 17.933 17.933 0 01-7.81-2.773 17.631 17.631 0 01-5.43-5.419 17.852 17.852 0 01-2.779-7.831A1.808 1.808 0 012.809 1h2.715a1.809 1.809 0 011.809 1.554 11.579 11.579 0 00.634 2.538A1.8 1.8 0 017.561 7l-1.15 1.145a14.466 14.466 0 005.43 5.419l1.149-1.147a1.813 1.813 0 011.91-.406 11.639 11.639 0 002.543.632A1.808 1.808 0 0119 14.477z"/></symbol>
   <symbol id="telegram" viewBox="0 0 26 21.805"><path d="M25.926 1.985l-3.927 18.504c-.3 1.306-1.068 1.631-2.165 1.016l-5.975-4.406-2.884 2.773a1.5 1.5 0 01-1.2.586l.424-6.086L21.283 4.359c.482-.43-.1-.667-.749-.238l-13.7 8.625L.939 10.9c-1.283-.4-1.306-1.283.267-1.9L24.272.116c1.068-.4 2 .238 1.654 1.869z"/></symbol>
   <symbol id="user" viewBox="0 0 16.256 18.063"><g><path d="M16.256 18.062H14.45v-2.709a2.709 2.709 0 00-2.709-2.709H4.516a2.709 2.709 0 00-2.709 2.709v2.709H0v-2.709a4.516 4.516 0 014.516-4.516h7.225a4.516 4.516 0 014.516 4.516z" data-name="Path 19"/><path d="M8.129 9.031a4.516 4.516 0 114.516-4.516 4.521 4.521 0 01-4.516 4.516zm0-7.225a2.709 2.709 0 102.709 2.709 2.712 2.712 0 00-2.709-2.709z" data-name="Path 20"/></g></symbol>
   <symbol id="viber" viewBox="0 0 24.655 26"><path d="M21.873 2.531C21.23 1.937 18.62.043 12.801.018c0 0-6.86-.411-10.2 2.656C.742 4.532.087 7.259.016 10.635s-.157 9.7 5.941 11.419h.005l-.005 2.62s-.041 1.061.66 1.274c.843.264 1.34-.543 2.148-1.412a78.612 78.612 0 001.513-1.711 23.594 23.594 0 007.743-.569c.843-.274 5.611-.883 6.382-7.21.8-6.53-.386-10.653-2.529-12.516zm.706 12.039c-.655 5.281-4.519 5.616-5.23 5.844a21.829 21.829 0 01-6.662.569s-2.638 3.184-3.461 4.014c-.269.269-.564.244-.559-.289 0-.35.02-4.351.02-4.351-5.169-1.432-4.864-6.819-4.808-9.637s.594-5.132 2.164-6.686c2.83-2.564 8.652-2.183 8.652-2.183 4.92.02 7.276 1.5 7.824 2 1.813 1.554 2.737 5.27 2.061 10.719zm-7.058-4.1a.328.328 0 01-.655.03 1.57 1.57 0 00-1.653-1.723.328.328 0 01.036-.655 2.208 2.208 0 012.274 2.346zm1.031.574a3.793 3.793 0 00-3.849-4.026.328.328 0 01.046-.655 4.447 4.447 0 014.458 4.7.328.328 0 01-.655-.015zm2.386.68a.328.328 0 01-.655.005c-.03-4.138-2.788-6.393-6.134-6.418a.328.328 0 010-.655c3.744.023 6.755 2.608 6.791 7.066zm-.574 4.981v.01c-.548.965-1.574 2.031-2.63 1.691l-.01-.015a19.517 19.517 0 01-5.189-2.869 13.274 13.274 0 01-2.151-2.155 16.477 16.477 0 01-1.564-2.37A15.172 15.172 0 015.5 8.169c-.34-1.056.721-2.082 1.691-2.63h.01a.924.924 0 011.214.2s.63.751.9 1.122c.254.345.594.9.772 1.208a1.06 1.06 0 01-.188 1.351l-.609.487a.893.893 0 00-.269.711 6.358 6.358 0 004.28 4.28.893.893 0 00.711-.269l.487-.609a1.06 1.06 0 011.351-.188 13.156 13.156 0 012.325 1.67.907.907 0 01.193 1.2z"/></symbol>
   <symbol id="whatsapp" viewBox="0 0 26 26"><path d="M22.106 3.778A12.888 12.888 0 001.828 19.326L0 26l6.831-1.793a12.845 12.845 0 006.158 1.567h.006A13.008 13.008 0 0026 12.89a12.935 12.935 0 00-3.894-9.112zm-9.112 19.825a10.69 10.69 0 01-5.455-1.492l-.389-.232-4.05 1.063 1.079-3.952-.255-.406a10.729 10.729 0 1119.9-5.693 10.828 10.828 0 01-10.83 10.712zm5.873-8.021c-.319-.163-1.9-.94-2.2-1.045s-.511-.162-.725.162-.83 1.045-1.021 1.265-.377.244-.7.081a8.763 8.763 0 01-4.382-3.83c-.331-.569.331-.528.946-1.758a.6.6 0 00-.029-.563c-.081-.163-.725-1.747-.992-2.391-.261-.627-.528-.54-.725-.551s-.4-.012-.615-.012a1.193 1.193 0 00-.859.4 3.618 3.618 0 00-1.126 2.687 6.307 6.307 0 001.315 3.333 14.386 14.386 0 005.5 4.863c2.043.882 2.844.958 3.865.807a3.3 3.3 0 002.171-1.532 2.692 2.692 0 00.186-1.532c-.076-.145-.289-.227-.609-.383z"/></symbol>
   <symbol id="search" viewBox="0 0 15 15.248"><path d="M14.751 14.992a.847.847 0 01-1.2.012l-.012-.012-2.488-2.528a6.72 6.72 0 01-9.042-.557 7.064 7.064 0 010-9.865 6.787 6.787 0 019.708 0 6.992 6.992 0 01.547 9.188l2.487 2.529a.88.88 0 010 1.232zM10.502 3.275a5.088 5.088 0 00-7.285 0 5.3 5.3 0 000 7.4 5.089 5.089 0 007.28 0 5.29 5.29 0 000-7.4z" data-name="search"/></symbol>
   <symbol id="home" viewBox="0 0 20 20"><g><path d="M14.491 20H5.508a3.038 3.038 0 01-3.012-3.057v-4.759h1.713v4.759a1.31 1.31 0 001.3 1.318h8.983a1.31 1.31 0 001.3-1.318v-4.759h1.711v4.759A3.038 3.038 0 0114.491 20z" data-name="Path 33"/><path d="M18.844 10.566L10 2.356l-8.844 8.21L0 9.283 10 0l10 9.283z" data-name="Path 34"/></g></symbol>
   <symbol id="favorite2" viewBox="0 0 21 20"><path stroke-width="2" d="M9.657 17.456l-.001-.001c-2.724-2.512-4.904-4.528-6.416-6.41C1.74 9.18 1 7.566 1 5.876 1 3.11 3.108 1 5.775 1c1.518 0 2.997.724 3.96 1.867l.765.905.764-.905C12.228 1.724 13.707 1 15.225 1 17.892 1 20 3.111 20 5.875c0 1.69-.74 3.304-2.24 5.17-1.512 1.882-3.692 3.898-6.416 6.41l-.001.001-.843.781-.843-.78z"/></symbol>
   <symbol id="delete" viewBox="0 0 18 20"><path d="M17 4h-4V2a2 2 0 00-2-2H7a2 2 0 00-2 2v2H1a1 1 0 000 2h1v11a3 3 0 003 3h8a3 3 0 003-3V6h1a1 1 0 000-2zM7 2h4v2H7zm7 15a1 1 0 01-1 1H5a1 1 0 01-1-1V6h10z"/></symbol>
   <symbol id="draft" viewBox="0 0 22.811 24"><path stroke-width="2" d="M16.786 5.535L12.252 1H1v22h15.786v-5.374" data-name="&#x41A;&#x43E;&#x43D;&#x442;&#x443;&#x440; 29"/><g data-name="&#x421;&#x433;&#x440;&#x443;&#x43F;&#x43F;&#x438;&#x440;&#x43E;&#x432;&#x430;&#x442;&#x44C; 1"><path stroke-width="2" d="M21.4 9.717l-8.625 8.623-3.4 1.043 1.043-3.4 8.622-8.622z" data-name="&#x41A;&#x43E;&#x43D;&#x442;&#x443;&#x440; 31"/></g><path stroke-width="2" d="M12.75 9.146H3.519" data-name="&#x41B;&#x438;&#x43D;&#x438;&#x44F; 1"/><path stroke-width="2" d="M9.519 12.659h-6" data-name="&#x41B;&#x438;&#x43D;&#x438;&#x44F; 2"/><path stroke-width="2" d="M7.519 16.171h-4" data-name="&#x41B;&#x438;&#x43D;&#x438;&#x44F; 3"/></symbol>
   <symbol id="filter" viewBox="0 0 20 17.999"><g data-name="Group 740"><path d="M3 17.999v-1H0v-2h3v-1h4v1h13v2H7v1z" data-name="Union 5"/><path d="M14 11v-1H0V8h14V7h4v1h2v2h-2v1z" data-name="Union 6"/><path d="M6 4V3H0V1h6V0h4v1h10v2H10v1z" data-name="Union 7"/></g></symbol>
   <symbol id="checkbox" viewBox="0 0 12.508 10"><path d="M4.623 10L0 5.008l1.6-1.487 3.024 3.265L10.907 0l1.6 1.487z"/></symbol>
   <symbol id="repeat" viewBox="0 0 22 27.273"><g stroke-linecap="round" stroke-linejoin="round" stroke-width="2"><path d="M16.556 1.414L21 5.858l-4.444 4.445" data-name="&#x41A;&#x43E;&#x43D;&#x442;&#x443;&#x440; 54"/><path d="M1 12.525v-2.223a4.444 4.444 0 014.444-4.444H21" data-name="&#x41A;&#x43E;&#x43D;&#x442;&#x443;&#x440; 55"/><path d="M5.444 25.859L1 21.414l4.444-4.444" data-name="&#x41A;&#x43E;&#x43D;&#x442;&#x443;&#x440; 56"/><path d="M21 14.747v2.222a4.444 4.444 0 01-4.444 4.444H1" data-name="&#x41A;&#x43E;&#x43D;&#x442;&#x443;&#x440; 57"/></g></symbol>
   <symbol id="Eye" viewBox="0 0 20 11.765"><path d="M9.996 0c-5.522 0-10 5.882-10 5.882s4.478 5.882 10 5.882 10-5.882 10-5.882S15.523 0 9.996 0zm0 9.678a3.8 3.8 0 113.795-3.8 3.8 3.8 0 01-3.795 3.8z"/></symbol>
   <symbol id="Download" viewBox="0 0 19.661 20"><g data-name="1"><path d="M9.83 13.812l3.271-5.2h-2.288V.985a.983.983 0 00-1.966 0v7.627H6.559z" data-name="Path 372"/><path d="M18.503 18.034H1.155a1 1 0 100 1.966h17.348a1 1 0 100-1.966z" data-name="Path 373"/></g></symbol>
   <symbol id="Like" viewBox="0 0 17 17"><path d="M15.665 12.414a1.441 1.441 0 000-2.874h-.382v-.012a1.441 1.441 0 000-2.874v-.008l-5.309.072a9.742 9.742 0 00.876-5.467A1.349 1.349 0 009.55 0a1.349 1.349 0 00-1.3 1.223c-.294 2.3-1.3 3.246-2.224 4.649a7.894 7.894 0 00-1.166 3.5v5.077a2.471 2.471 0 002.376 2.555h8.044a1.01 1.01 0 000-2.014 1.283 1.283 0 000-2.56v-.012z" data-name="Path 380"/><path d="M2.963 17H.871A.905.905 0 010 16.064v-8.42a.905.905 0 01.871-.936h2.092a.9.9 0 01.87.936v8.42a.9.9 0 01-.87.936z" data-name="Path 381"/></symbol>
   <symbol id="close" viewBox="0 0 21 21"><path d="M21 2.115L18.885 0 10.5 8.385 2.115 0 0 2.115 8.385 10.5 0 18.885 2.115 21l8.385-8.385L18.885 21 21 18.885 12.615 10.5z"/></symbol>
</svg>