<svg xmlns="http://www.w3.org/2000/svg" width="50.006" height="30.106"><path data-name="Контур 1070" d="M25.006 26.206a14.768 14.768 0 0010 3.9 15 15 0 000-30 14.768 14.768 0 00-10 3.9 15.017 15.017 0 00-1 21.2z" fill="#fca412"/><path data-name="Контур 1071" d="M47.906 23.506a.458.458 0 01.4-.5.5.5 0 010 1 .547.547 0 01-.4-.5zm.5.3a.4.4 0 10-.4-.4c.1.3.2.4.4.4zm0-.1v-.4.1h.1l.1.2h.1l-.1-.2a.1.1 0 00.1-.1v-.1h-.3v.5z" fill="#fca412"/><path data-name="Контур 1072" d="M29.806 13.506a9.005 9.005 0 00-.3-1.6h-9.1a9.363 9.363 0 01.4-1.6h8.3c-.2-.5-.4-1.1-.6-1.6h-7a12.9 12.9 0 01.9-1.6h5.3a9.062 9.062 0 00-1.1-1.6h-3c.5-.6 1-1.1 1.5-1.6a15.007 15.007 0 00-20.2 22.2 15.207 15.207 0 0010.1 3.9 14.768 14.768 0 0010-3.9c.5-.5 1-1 1.5-1.6h-3a9.062 9.062 0 01-1.1-1.6h5.3c.3-.5.6-1 .9-1.6h-7a7.579 7.579 0 01-.6-1.6h8.3a9.363 9.363 0 00.4-1.6c.1-.5.2-1.1.3-1.6 0-.5.1-1 .1-1.6a5.768 5.768 0 00-.3-1.4z" fill="#d81e04"/><path data-name="Контур 1073" d="M47.906 18.606a.458.458 0 01.4-.5.472.472 0 01.5.5.472.472 0 01-.5.5.458.458 0 01-.4-.5zm.5.4a.4.4 0 100-.8.43.43 0 00-.4.4.781.781 0 00.4.4zm0-.2v-.3.1h.1l.1.2h.1l-.1-.2.1-.1v-.1h-.3v.4z" fill="#fefefe"/><path data-name="Контур 1074" d="M20.006 19.406a5.019 5.019 0 01-1.2.2c-.8 0-1.2-.5-1.2-1.4v-.6l.1-.6.1-.5.7-4.2h1.5l-.2.9h1l-.2 1.5h-1l-.4 2.5v.3c0 .3.1.5.5.5a.9.9 0 00.5-.1z" fill="#192068"/><path data-name="Контур 1075" d="M25.006 19.406a8.752 8.752 0 01-1.6.2 2.489 2.489 0 01-2.8-2.2v-.6c0-2.1 1.2-3.7 2.8-3.7a2.1 2.1 0 012.2 1.9v.3a7.719 7.719 0 01-.2 1.5h-3.3v.2c0 .7.5 1.1 1.4 1.1a3.287 3.287 0 001.7-.4l-.2 1.7zm-1-3.7v-.3c0-.4-.2-.8-.6-.8h-.1c-.5 0-.9.4-1 1.1z" fill="#192068"/><path data-name="Контур 1076" d="M7.606 19.506h-1.6l.9-5.8-2.1 5.8h-1.1l-.1-5.8-1 5.8h-1.6l1.3-7.6h2.4v4.7l1.6-4.7h2.6z" fill="#192068"/><path data-name="Контур 1077" d="M11.506 16.806h-.3c-.9 0-1.4.4-1.4.9a.56.56 0 00.5.6h.1c.7 0 1.1-.6 1.1-1.5zm1.3 2.7h-1.4v-.6a2.136 2.136 0 01-1.7.8 1.649 1.649 0 01-1.5-1.7 2.2 2.2 0 01.1-.8c.3-1 1.2-1.5 2.7-1.6h.7c0-.1.1-.3.1-.4 0-.4-.3-.5-1.1-.5a5.067 5.067 0 00-1.3.2h-.3l.2-1.4a5.822 5.822 0 011.9-.3q2.1 0 2.1 1.8a4.869 4.869 0 01-.1 1.2l-.4 2.2-.1.4v.5z" fill="#192068"/><path data-name="Контур 1078" d="M32.706 13.406a3.255 3.255 0 011.4.4l.3-1.6a.6.6 0 00-.4-.1l-.6-.2a1.949 1.949 0 00-.8-.1 3.458 3.458 0 00-2.8 1.2h-.2l-1.5 1 .1-.6h-1.7l-1 6.2h1.6l.6-3.3a3.288 3.288 0 01.3-.6 1.086 1.086 0 01.9-.4h.2a4.869 4.869 0 00-.1 1.2c0 2 1.1 3.3 2.9 3.3a5.9 5.9 0 001.4-.2l.3-1.8a7.006 7.006 0 01-1.4.3c-1 0-1.5-.7-1.5-1.9 0-1.6.8-2.8 2-2.8z" fill="#192068"/><path data-name="Контур 1079" d="M46.406 11.906l-.4 2.2a1.859 1.859 0 00-1.5-.9 2.313 2.313 0 00-2.1 1.4l-1-.6.1-.6h-1.8l-1 6.2h1.6l.5-3.3s.4-.5.5-.6a1.012 1.012 0 01.7-.4 5.663 5.663 0 00-.3 1.8c0 1.5.8 2.6 2 2.6a1.8 1.8 0 001.5-.7l-.1.6h1.5l1.3-7.6h-1.5zm-2 6.2c-.5 0-.8-.4-.8-1.2 0-1.2.5-2.1 1.3-2.1.6 0 .8.4.8 1.2 0 1.2-.5 2.1-1.3 2.1z" fill="#192068"/><path data-name="Контур 1080" d="M37.006 16.806h-.3c-.9 0-1.4.4-1.4.9a.56.56 0 00.5.6h.1c.7 0 1.1-.6 1.1-1.5zm1.3 2.7h-1.4v-.6a2.136 2.136 0 01-1.7.8 1.558 1.558 0 01-1.5-1.6v-.1c0-1.5 1.1-2.4 2.8-2.4h.7c0-.1.1-.3.1-.4 0-.4-.3-.5-1.1-.5a5.067 5.067 0 00-1.3.2h-.3l.2-1.4a5.822 5.822 0 011.9-.3q2.1 0 2.1 1.8a4.869 4.869 0 01-.1 1.2l-.3 2.2v.9z" fill="#192068"/><path data-name="Контур 1081" d="M16.106 14.706a4.869 4.869 0 011.2.1l.2-1.4a7.6 7.6 0 00-1.4-.1c-1.8 0-2.4 1-2.4 2.1a1.743 1.743 0 001.2 1.7c.6.3.8.4.8.6s-.3.6-1 .6a4.013 4.013 0 01-1.5-.3l-.1 1.4h.3c.1 0 .3.1.4.1h.9c1.8 0 2.6-.7 2.6-2.1a1.743 1.743 0 00-1.2-1.7c-.7-.3-.8-.4-.8-.6s.4-.4.8-.4z" fill="#192068"/><path data-name="Контур 1082" d="M34.906 11.706l-.3 1.6a2.41 2.41 0 00-1.5-.4c-1.2 0-2.1 1.2-2.1 2.9 0 1.2.6 1.9 1.5 1.9a3.708 3.708 0 001.4-.4l-.3 1.7a6.753 6.753 0 01-1.4.2c-1.8 0-2.8-1.3-2.8-3.3 0-2.7 1.5-4.6 3.6-4.6a1.7 1.7 0 01.7.1l.7.2z" fill="#fefefe"/><path data-name="Контур 1083" d="M29.706 12.806h-.2c-.5 0-.9.3-1.3 1l.2-.9h-1.5l-1 6.2h1.6c.6-3.8.8-4.4 1.5-4.4h.1a6.033 6.033 0 01.6-1.9z" fill="#fefefe"/><path data-name="Контур 1084" d="M20.406 19.006a5.019 5.019 0 01-1.2.2 1.155 1.155 0 01-1.3-1.1v-.8l.1-.6.1-.6.7-4.2h1.6l-.2.9h.9l-.2 1.5h-.8l-.4 2.6v.3c0 .3.2.4.5.4a.6.6 0 00.4-.1z" fill="#fefefe"/><path data-name="Контур 1085" d="M14.206 14.806a1.743 1.743 0 001.2 1.7c.7.3.8.4.8.7s-.3.6-.9.6a5.9 5.9 0 01-1.4-.2l-.2 1.4h.8a2.719 2.719 0 00.9 0c1.7 0 2.5-.6 2.5-2.1a1.556 1.556 0 00-1.1-1.7c-.7-.3-.8-.4-.8-.7s.3-.5.8-.5a4.869 4.869 0 011.2.1l.2-1.4a6.6 6.6 0 00-1.4-.1c-2 .1-2.7 1.1-2.6 2.2z" fill="#fefefe"/><path data-name="Контур 1086" d="M47.206 19.006h-1.5l.1-.6a2.127 2.127 0 01-1.5.7c-1.2 0-2-1-2-2.5 0-2.1 1.2-3.8 2.6-3.8a1.65 1.65 0 011.5.9l.4-2.2h1.6l-1.2 7.5zm-2.3-1.4c.7 0 1.3-.9 1.3-2.1 0-.8-.3-1.2-.8-1.2-.7 0-1.3.9-1.3 2.1-.1.8.2 1.2.8 1.2z" fill="#fefefe"/><path data-name="Контур 1087" d="M25.306 18.906a4.671 4.671 0 01-1.7.3 2.391 2.391 0 01-2.7-2.1v-.6c0-2.1 1.2-3.7 2.8-3.7a2.1 2.1 0 012.2 1.9v.3a7.719 7.719 0 01-.2 1.5h-3.2v.2c0 .7.5 1.1 1.4 1.1a3.287 3.287 0 001.7-.4l-.3 1.5zm-.9-3.7v-.3c.1-.4-.2-.7-.6-.8h-.2c-.5 0-.9.4-1 1.1z" fill="#fefefe"/><path data-name="Контур 1088" d="M8.006 19.006h-1.6l.9-5.8-2 5.8h-1.2l-.1-5.8-1 5.8h-1.5l1.3-7.6h2.3l.1 4.7 1.5-4.7h2.6z" fill="#fefefe"/><path data-name="Контур 1089" d="M12.006 16.306h-.4c-.9 0-1.4.3-1.4 1a.56.56 0 00.5.6h.1c.7 0 1.2-.6 1.2-1.6zm1.2 2.7h-1.3v-.6a2.136 2.136 0 01-1.7.8 1.538 1.538 0 01-1.5-1.5v-.1c0-1.5 1-2.4 2.8-2.4h.7c0-.1.1-.3.1-.4 0-.4-.3-.6-1-.6a5.7 5.7 0 00-1.3.1l-.2.1h-.3l.2-1.4a6.279 6.279 0 011.9-.3q2.1 0 2.1 1.8c0 .4-.1.8-.1 1.2l-.4 2.2-.1.4v.5z" fill="#fefefe"/><path data-name="Контур 1090" d="M37.506 16.306h-.4c-.9 0-1.4.3-1.4 1a.56.56 0 00.5.6h.1c.7 0 1.2-.6 1.2-1.6zm1.2 2.7h-1.3v-.6a2.136 2.136 0 01-1.7.8 1.538 1.538 0 01-1.5-1.5v-.1c0-1.5 1-2.4 2.8-2.4h.6c0-.1.1-.3.1-.4 0-.4-.3-.6-1-.6a6.6 6.6 0 00-1.4.1l-.2.1h-.2l.2-1.4a6.279 6.279 0 011.9-.3q2.1 0 2.1 1.8a5.852 5.852 0 01-.2 1.3l-.3 2.2v.9z" fill="#fefefe"/><path data-name="Контур 1091" d="M43.006 12.806h-.2c-.5 0-.8.3-1.3 1l.2-.9h-1.5l-1 6.2h1.6c.6-3.8.8-4.4 1.5-4.4h.1a10.564 10.564 0 01.6-1.9z" fill="#fefefe"/></svg>