<svg xmlns="http://www.w3.org/2000/svg" width="43.3" height="12.3"><defs><linearGradient id="a" x1=".002" y1="92.303" x2=".998" y2="92.303" gradientUnits="objectBoundingBox"><stop offset=".3" stop-color="#00b4e6"/><stop offset="1" stop-color="#088ccb"/></linearGradient></defs><path d="M11.6 0a2.159 2.159 0 00-2.1 1.6C9.1 3.1 8 7.2 7.9 7.3h-.3S6.4 3.1 6 1.6A2.354 2.354 0 003.9 0H0v12.2h3.9V5h.3l2.2 7.3h2.7L11.3 5h.3v7.3h3.9V0zm14.1 0A2.256 2.256 0 0024 1.3l-2.7 6H21V0h-3.9v12.2h3.7a2.1 2.1 0 001.7-1.3l2.7-6h.3v7.3h3.9V0zm5.4 5.6v6.7h3.8v-4h4.2A4.083 4.083 0 0043 5.5H31.1z" fill="#4db45e"/><path d="M39.1 0h-8.6A6.292 6.292 0 0035 4.8a4.145 4.145 0 001.6.2h6.6a2.769 2.769 0 00.1-.9A4.206 4.206 0 0039.1 0z" fill="url(#a)"/></svg>