<svg width="120" height="20" fill="none" xmlns="http://www.w3.org/2000/svg"><path d="M9.452.33a.62.62 0 011.097 0l2.901 5.222a.64.64 0 00.414.315L19.5 7.146c.476.108.663.713.34 1.093l-3.842 4.506a.686.686 0 00-.159.51l.581 6.012c.05.507-.442.881-.887.675l-5.276-2.436a.608.608 0 00-.512 0l-5.276 2.436c-.445.206-.936-.168-.887-.675l.58-6.012a.686.686 0 00-.158-.51L.162 8.239C-.162 7.86.025 7.254.5 7.146l5.635-1.279a.637.637 0 00.414-.315L9.452.33zm50 0a.62.62 0 011.096 0l2.902 5.222a.64.64 0 00.414.315L69.5 7.146c.476.108.663.713.34 1.093l-3.842 4.506a.686.686 0 00-.159.51l.581 6.012c.05.507-.442.881-.887.675l-5.276-2.436a.608.608 0 00-.512 0l-5.276 2.436c-.445.206-.936-.168-.887-.675l.58-6.012a.686.686 0 00-.158-.51l-3.841-4.506c-.324-.38-.136-.985.339-1.093l5.635-1.279a.638.638 0 00.414-.315L59.452.33zm-25 0a.62.62 0 011.096 0l2.902 5.222a.64.64 0 00.414.315L44.5 7.146c.475.108.663.713.34 1.093l-3.842 4.506a.686.686 0 00-.158.51l.58 6.012c.05.507-.442.881-.887.675l-5.276-2.436a.608.608 0 00-.512 0l-5.276 2.436c-.445.206-.936-.168-.887-.675l.58-6.012a.686.686 0 00-.158-.51l-3.841-4.506c-.324-.38-.136-.985.339-1.093l5.635-1.279a.638.638 0 00.414-.315L34.452.33zm49.999 0a.62.62 0 011.098 0l2.901 5.222a.64.64 0 00.414.315L94.5 7.146c.476.108.663.713.34 1.093l-3.842 4.506a.686.686 0 00-.159.51l.581 6.012c.05.507-.442.881-.887.675l-5.276-2.436a.608.608 0 00-.512 0l-5.276 2.436c-.445.206-.936-.168-.887-.675l.58-6.012a.686.686 0 00-.158-.51l-3.841-4.506c-.324-.38-.137-.985.339-1.093l5.635-1.279a.638.638 0 00.414-.315L84.45.33zm25.001 0a.62.62 0 011.096 0l2.902 5.222a.64.64 0 00.414.315l5.635 1.279c.476.108.663.713.339 1.093l-3.841 4.506a.69.69 0 00-.159.51l.581 6.012c.049.507-.442.881-.887.675l-5.276-2.436a.608.608 0 00-.512 0l-5.276 2.436c-.445.206-.936-.168-.887-.675l.581-6.012a.69.69 0 00-.159-.51l-3.841-4.506c-.324-.38-.137-.985.339-1.093l5.635-1.279a.638.638 0 00.414-.315L109.452.33z" fill="#6CB96E"/></svg>