<svg xmlns="http://www.w3.org/2000/svg" width="43.3" height="14"><path data-name="Контур 1065" d="M15.2 13.8L17.4.2h3.5l-2.2 13.6z" fill="#01549a"/><path data-name="Контур 1066" d="M31.4.6a8.533 8.533 0 00-3.1-.6c-3.5 0-5.9 1.8-5.9 4.5 0 2 1.7 3 3.1 3.7 1.3.7 1.8 1.1 1.8 1.7 0 .9-1.1 1.3-2.1 1.3a7.535 7.535 0 01-3.3-.7l-.4-.2-.5 3a10.361 10.361 0 003.9.7c3.7 0 6.1-1.8 6.1-4.6 0-1.6-.9-2.7-2.9-3.7-1.2-.6-2-1-2-1.7s.6-1.2 2-1.2a7.512 7.512 0 012.6.5l.3.2z" fill="#01549a"/><path data-name="Контур 1067" d="M36.1 9l1.4-3.8s.3-.8.5-1.3l.2 1.2s.7 3.2.8 3.9zM40.4.3h-2.7a1.675 1.675 0 00-1.8 1.1l-5.2 12.4h3.7s.6-1.7.7-2h4.5l.4 2h3.3z" fill="#01549a"/><path data-name="Контур 1068" d="M12.3.3L8.9 9.5l-.4-1.9a10.736 10.736 0 00-4.8-5.7l3.1 11.9h3.7L16 .3z" fill="#01549a"/><path data-name="Контур 1069" d="M5.7.2H0v.3c4.4 1.1 7.3 3.8 8.5 7.1L7.3 1.4A1.712 1.712 0 005.7.2z" fill="#f7a707"/></svg>