<svg width="120" height="20" viewBox="0 0 120 20" fill="none" xmlns="http://www.w3.org/2000/svg">
   <path d="M9.45152 0.330418C9.69636 -0.11014 10.3036 -0.110139 10.5485 0.330418L13.4502 5.55167C13.5399 5.71305 13.6902 5.82749 13.8643 5.86702L19.4991 7.14582C19.9745 7.25373 20.1622 7.85903 19.8381 8.23922L15.9967 12.7449C15.8779 12.8842 15.8205 13.0694 15.8385 13.2552L16.4192 19.2668C16.4682 19.774 15.9769 20.1481 15.5318 19.9425L10.256 17.506C10.0929 17.4306 9.90712 17.4306 9.74404 17.506L4.46822 19.9425C4.02306 20.1481 3.53176 19.774 3.58076 19.2668L4.16153 13.2552C4.17948 13.0694 4.12208 12.8842 4.00334 12.7449L0.161934 8.23921C-0.162195 7.85903 0.0254659 7.25373 0.500914 7.14582L6.13567 5.86702C6.30984 5.82749 6.46013 5.71305 6.54982 5.55167L9.45152 0.330418Z" fill="#6CB96E"/>
   <path d="M59.4515 0.330418C59.6964 -0.11014 60.3036 -0.110139 60.5485 0.330418L63.4502 5.55167C63.5399 5.71305 63.6902 5.82749 63.8643 5.86702L69.4991 7.14582C69.9745 7.25373 70.1622 7.85903 69.8381 8.23922L65.9967 12.7449C65.8779 12.8842 65.8205 13.0694 65.8385 13.2552L66.4192 19.2668C66.4682 19.774 65.9769 20.1481 65.5318 19.9425L60.256 17.506C60.0929 17.4306 59.9071 17.4306 59.744 17.506L54.4682 19.9425C54.0231 20.1481 53.5318 19.774 53.5808 19.2668L54.1615 13.2552C54.1795 13.0694 54.1221 12.8842 54.0033 12.7449L50.1619 8.23921C49.8378 7.85903 50.0255 7.25373 50.5009 7.14582L56.1357 5.86702C56.3098 5.82749 56.4601 5.71305 56.5498 5.55167L59.4515 0.330418Z" fill="#6CB96E"/>
   <path d="M34.4515 0.330418C34.6964 -0.11014 35.3036 -0.110139 35.5485 0.330418L38.4502 5.55167C38.5399 5.71305 38.6902 5.82749 38.8643 5.86702L44.4991 7.14582C44.9745 7.25373 45.1622 7.85903 44.8381 8.23922L40.9967 12.7449C40.8779 12.8842 40.8205 13.0694 40.8385 13.2552L41.4192 19.2668C41.4682 19.774 40.9769 20.1481 40.5318 19.9425L35.256 17.506C35.0929 17.4306 34.9071 17.4306 34.744 17.506L29.4682 19.9425C29.0231 20.1481 28.5318 19.774 28.5808 19.2668L29.1615 13.2552C29.1795 13.0694 29.1221 12.8842 29.0033 12.7449L25.1619 8.23921C24.8378 7.85903 25.0255 7.25373 25.5009 7.14582L31.1357 5.86702C31.3098 5.82749 31.4601 5.71305 31.5498 5.55167L34.4515 0.330418Z" fill="#6CB96E"/>
   <path d="M84.4515 0.330418C84.6964 -0.11014 85.3036 -0.110139 85.5485 0.330418L88.4502 5.55167C88.5399 5.71305 88.6902 5.82749 88.8643 5.86702L94.4991 7.14582C94.9745 7.25373 95.1622 7.85903 94.8381 8.23922L90.9967 12.7449C90.8779 12.8842 90.8205 13.0694 90.8385 13.2552L91.4192 19.2668C91.4682 19.774 90.9769 20.1481 90.5318 19.9425L85.256 17.506C85.0929 17.4306 84.9071 17.4306 84.744 17.506L79.4682 19.9425C79.0231 20.1481 78.5318 19.774 78.5808 19.2668L79.1615 13.2552C79.1795 13.0694 79.1221 12.8842 79.0033 12.7449L75.1619 8.23921C74.8378 7.85903 75.0255 7.25373 75.5009 7.14582L81.1357 5.86702C81.3098 5.82749 81.4601 5.71305 81.5498 5.55167L84.4515 0.330418Z" fill="#6CB96E"/>
   <path d="M109.452 0.330418C109.696 -0.11014 110.304 -0.110139 110.548 0.330418L113.45 5.55167C113.54 5.71305 113.69 5.82749 113.864 5.86702L119.499 7.14582C119.975 7.25373 120.162 7.85903 119.838 8.23922L115.997 12.7449C115.878 12.8842 115.821 13.0694 115.838 13.2552L116.419 19.2668C116.468 19.774 115.977 20.1481 115.532 19.9425L110.256 17.506C110.093 17.4306 109.907 17.4306 109.744 17.506L104.468 19.9425C104.023 20.1481 103.532 19.774 103.581 19.2668L104.162 13.2552C104.179 13.0694 104.122 12.8842 104.003 12.7449L100.162 8.23921C99.8378 7.85903 100.025 7.25373 100.501 7.14582L106.136 5.86702C106.31 5.82749 106.46 5.71305 106.55 5.55167L109.452 0.330418Z" fill="#6CB96E"/>
</svg>