<svg id="cart" xmlns="http://www.w3.org/2000/svg" width="23.994" height="23.955" viewBox="0 0 23.994 23.955">
  <path id="Path_16" data-name="Path 16" d="M9.315,23.63a2.315,2.315,0,1,1,2.315-2.315A2.317,2.317,0,0,1,9.315,23.63Z" transform="translate(-0.951 0.325)" fill="#003668"/>
  <path id="Path_17" data-name="Path 17" d="M20.315,23.63a2.315,2.315,0,1,1,2.315-2.315A2.317,2.317,0,0,1,20.315,23.63Z" transform="translate(-1.192 0.325)" fill="#003668"/>
  <path id="Path_18" data-name="Path 18" d="M20.062,17.011H9.983a3.173,3.173,0,0,1-1.994-.663,2.992,2.992,0,0,1-1.1-1.754L4.288,2H1V0H5.983L7.017,5H24.994L23.1,14.594a2.992,2.992,0,0,1-1.1,1.754A3.173,3.173,0,0,1,20.062,17.011ZM7.431,7,8.92,14.2a1,1,0,0,0,.366.586,1.058,1.058,0,0,0,.668.221H20.042a1.058,1.058,0,0,0,.668-.221,1,1,0,0,0,.365-.581L22.495,7Z" transform="translate(-1 0)" fill="#003668"/>
</svg>
