<svg xmlns="http://www.w3.org/2000/svg" width="23.209" height="23" viewBox="0 0 23.209 23">
  <g id="cart" transform="translate(0 1)">
    <path id="Контур_16" data-name="Контур 16" d="M9,22a1,1,0,1,0-1-1A1,1,0,0,0,9,22Z" transform="translate(-1 -1)" fill="none" stroke="#fff" stroke-width="2"/>
    <path id="Контур_17" data-name="Контур 17" d="M20,22a1,1,0,1,0-1-1A1,1,0,0,0,20,22Z" transform="translate(-1 -1)" fill="none" stroke="#fff" stroke-width="2"/>
    <path id="Контур_18" data-name="Контур 18" d="M1,1H5L7.68,14.39a2,2,0,0,0,2,1.61H19.4a2,2,0,0,0,2-1.61L23,6H6" transform="translate(-1 -1)" fill="none" stroke="#fff" stroke-width="2"/>
  </g>
</svg>
