<svg width="21" height="20" viewBox="0 0 21 20" fill="none" xmlns="http://www.w3.org/2000/svg">
<path d="M9.65696 17.4564L9.65553 17.455C6.93239 14.9431 4.75188 12.9265 3.24047 11.0455C1.74056 9.17881 1 7.56486 1 5.87466C1 3.11146 3.10817 1 5.775 1C7.29328 1 8.77193 1.72425 9.73569 2.86654L10.5 3.77243L11.2643 2.86654C12.2281 1.72425 13.7067 1 15.225 1C17.8918 1 20 3.11146 20 5.87466C20 7.56486 19.2594 9.17881 17.7595 11.0455C16.2481 12.9265 14.0676 14.9431 11.3445 17.455L11.343 17.4564L10.5 18.2371L9.65696 17.4564Z" fill="white" stroke="#003668" stroke-width="2"/>
</svg>
