<svg xmlns="http://www.w3.org/2000/svg" width="21" height="19.6" viewBox="0 0 21 19.6">
  <path id="favorite" d="M16.912,1.1a5.593,5.593,0,0,0-6.032,2.741A5.593,5.593,0,0,0,4.849,1.1a6.07,6.07,0,0,0-3.164,1.86C-3.654,9.42,9,19.21,10.881,20.581c1.879-1.469,14.535-11.161,9.2-17.623A6.07,6.07,0,0,0,16.912,1.1ZM10.881,18.133C7.222,15.2,2.377,10.3,2.377,6.58A3.572,3.572,0,0,1,6.036,2.958a2.763,2.763,0,0,1,.89.1A4.093,4.093,0,0,1,9.3,4.916h0a12.658,12.658,0,0,1,.494,1.371l.1.783H11.87l.2-.783a7.625,7.625,0,0,1,.494-1.371h0a4.093,4.093,0,0,1,2.373-1.86A3.511,3.511,0,0,1,19.285,5.7a2.685,2.685,0,0,1,.1.881C19.384,10.3,14.539,15.2,10.881,18.133Z" transform="translate(-0.381 -0.981)" fill="#003668"/>
</svg>
