<svg xmlns="http://www.w3.org/2000/svg" width="7.044" height="16" viewBox="0 0 7.044 16">
  <path id="info" d="M34.481,38.958c-.39.083-.74.187-1.1.229-1.013.117-1.456-.332-1.272-1.327.142-.772.355-1.531.546-2.294a17.173,17.173,0,0,0,.725-3.184,2.02,2.02,0,0,0-1.246-2.092,3.415,3.415,0,0,0-1.773-.193,10.24,10.24,0,0,0-2.37.732c-.051.019-.121.056-.132.1-.074.269-.134.543-.207.852l.482-.154a2.425,2.425,0,0,1,1.277-.081c.342.073.548.241.565.591a4.534,4.534,0,0,1-.077,1.23c-.2.89-.463,1.768-.71,2.647a10.124,10.124,0,0,0-.475,2.408,1.974,1.974,0,0,0,1.247,1.968,3.362,3.362,0,0,0,2.094.172c.721-.171,1.412-.46,2.115-.7a.215.215,0,0,0,.118-.117C34.361,39.483,34.419,39.222,34.481,38.958ZM30.674,26.449a4.748,4.748,0,0,0,.263.883,2.014,2.014,0,0,0,2.195,1,1.869,1.869,0,0,0,1.54-2.154,1.973,1.973,0,0,0-1.878-1.527A2.05,2.05,0,0,0,30.674,26.449Z" transform="translate(-27.654 -24.655)" fill="#003668"/>
</svg>
