<svg id="Like" xmlns="http://www.w3.org/2000/svg" width="17" height="17" viewBox="0 0 17 17">
  <path id="Path_380" data-name="Path 380" d="M3296.051,445.935a1.441,1.441,0,0,0,0-2.874h-.382v-.012a1.441,1.441,0,0,0,0-2.874v-.008l-5.309.072a9.742,9.742,0,0,0,.876-5.467,1.349,1.349,0,0,0-1.3-1.251h0a1.349,1.349,0,0,0-1.3,1.223c-.294,2.3-1.3,3.246-2.224,4.649a7.894,7.894,0,0,0-1.166,3.5v5.077a2.471,2.471,0,0,0,2.376,2.555h8.044a1.01,1.01,0,0,0,0-2.014,1.283,1.283,0,0,0,0-2.56v-.012Z" transform="translate(-3280.386 -433.521)" fill="#99afc3"/>
  <path id="Path_381" data-name="Path 381" d="M3283.349,450.521h-2.092a.905.905,0,0,1-.871-.936v-8.42a.905.905,0,0,1,.871-.936h2.092a.9.9,0,0,1,.87.936v8.42A.9.9,0,0,1,3283.349,450.521Z" transform="translate(-3280.386 -433.521)" fill="#99afc3"/>
</svg>
