<svg width="512" height="512" viewBox="0 0 512 512" fill="none" xmlns="http://www.w3.org/2000/svg">
<g clip-path="url(#clip0_5_56)">
<mask id="mask0_5_56" style="mask-type:luminance" maskUnits="userSpaceOnUse" x="0" y="0" width="512" height="512">
<path d="M0 0.00149536H511.999V512H0V0.00149536Z" fill="white"/>
</mask>
<g mask="url(#mask0_5_56)">
<path d="M0.728026 492.728C-0.00696153 495.3 -0.0407116 498.022 0.630273 500.612C1.30126 503.201 2.65256 505.564 4.54414 507.456C6.43572 509.348 8.79875 510.699 11.3883 511.37C13.9779 512.041 16.6998 512.007 19.272 511.272L159.278 471.27L40.7299 352.723L0.728026 492.728Z" fill="#5B6776"/>
<path d="M498.686 76.9514L435.051 13.3156C426.568 4.83261 415.271 0.15864 403.241 0.15364H403.22C391.193 0.15364 379.902 4.82162 371.426 13.2976L339.59 45.1325L466.869 172.411L498.705 140.576C507.186 132.095 511.853 120.796 511.848 108.761C511.843 96.7304 507.168 85.4334 498.686 76.9514Z" fill="#5B6776"/>
<path d="M57.5779 327.145L184.857 454.423L445.656 193.624L318.377 66.3455L57.5779 327.145Z" fill="#5B6776"/>
</g>
</g>
<defs>
<clipPath id="clip0_5_56">
<rect width="512" height="512" fill="white"/>
</clipPath>
</defs>
</svg>
