<svg id="search" xmlns="http://www.w3.org/2000/svg" width="15" height="15.248" viewBox="0 0 15 15.248">
  <path id="search-2" data-name="search" d="M13.3,13.517a.847.847,0,0,1-1.2.012l-.012-.012L9.6,10.989a6.72,6.72,0,0,1-9.042-.557,7.064,7.064,0,0,1,0-9.865,6.787,6.787,0,0,1,9.708,0,6.992,6.992,0,0,1,.547,9.188L13.3,12.284a.88.88,0,0,1,0,1.232ZM9.051,1.8a5.088,5.088,0,0,0-7.285,0,5.3,5.3,0,0,0,0,7.4,5.089,5.089,0,0,0,7.28,0,5.29,5.29,0,0,0,0-7.4Z" transform="translate(1.451 1.475)" fill="#17426d"/>
</svg>
