<svg xmlns="http://www.w3.org/2000/svg" width="16.256" height="18.063" viewBox="0 0 16.256 18.063">
  <g id="user-icon" transform="translate(-3 -2)">
    <path id="Path_19" data-name="Path 19" d="M19.256,21.225H17.45V18.516a2.709,2.709,0,0,0-2.709-2.709H7.516a2.709,2.709,0,0,0-2.709,2.709v2.709H3V18.516A4.516,4.516,0,0,1,7.516,14h7.225a4.516,4.516,0,0,1,4.516,4.516Z" transform="translate(0 -1.163)" fill="#003668"/>
    <path id="Path_20" data-name="Path 20" d="M11.516,11.031a4.516,4.516,0,1,1,4.516-4.516A4.521,4.521,0,0,1,11.516,11.031Zm0-7.225a2.709,2.709,0,1,0,2.709,2.709A2.712,2.712,0,0,0,11.516,3.806Z" transform="translate(-0.387)" fill="#003668"/>
  </g>
</svg>
