<svg xmlns="http://www.w3.org/2000/svg" width="24.655" height="26" viewBox="0 0 24.655 26">
  <path id="viber" d="M22.8,2.534C22.157,1.94,19.547.046,13.728.021c0,0-6.86-.411-10.2,2.656C1.669,4.535,1.014,7.262.943,10.638s-.157,9.7,5.941,11.419h.005l-.005,2.62s-.041,1.061.66,1.274c.843.264,1.34-.543,2.148-1.412.442-.477,1.051-1.178,1.513-1.711a23.594,23.594,0,0,0,7.743-.569c.843-.274,5.611-.883,6.382-7.21.8-6.53-.386-10.653-2.529-12.516Zm.706,12.039c-.655,5.281-4.519,5.616-5.23,5.844a21.829,21.829,0,0,1-6.662.569S8.976,24.17,8.153,25c-.269.269-.564.244-.559-.289,0-.35.02-4.351.02-4.351h0c-5.169-1.432-4.864-6.819-4.808-9.637S3.4,5.591,4.97,4.037C7.8,1.473,13.622,1.854,13.622,1.854c4.92.02,7.276,1.5,7.824,2,1.813,1.554,2.737,5.27,2.061,10.719Zm-7.058-4.1a.328.328,0,0,1-.655.03A1.57,1.57,0,0,0,14.14,8.78a.328.328,0,0,1,.036-.655A2.208,2.208,0,0,1,16.45,10.471Zm1.031.574a3.793,3.793,0,0,0-3.849-4.026.328.328,0,0,1,.046-.655,4.447,4.447,0,0,1,4.458,4.7.328.328,0,0,1-.655-.015Zm2.386.68a.328.328,0,0,1-.655.005c-.03-4.138-2.788-6.393-6.134-6.418a.328.328,0,0,1,0-.655C16.82,4.682,19.831,7.267,19.867,11.725Zm-.574,4.981v.01c-.548.965-1.574,2.031-2.63,1.691l-.01-.015a19.517,19.517,0,0,1-5.189-2.869A13.274,13.274,0,0,1,9.311,13.37,16.477,16.477,0,0,1,7.747,11a15.172,15.172,0,0,1-1.32-2.828c-.34-1.056.721-2.082,1.691-2.63h.01a.924.924,0,0,1,1.214.2s.63.751.9,1.122c.254.345.594.9.772,1.208a1.06,1.06,0,0,1-.188,1.351l-.609.487a.893.893,0,0,0-.269.711,6.358,6.358,0,0,0,4.28,4.28.893.893,0,0,0,.711-.269l.487-.609a1.06,1.06,0,0,1,1.351-.188,13.156,13.156,0,0,1,2.325,1.67.907.907,0,0,1,.193,1.2Z" transform="translate(-0.927 -0.003)" fill="#003668"/>
</svg>
