<svg xmlns="http://www.w3.org/2000/svg" width="14" height="12.657" viewBox="0 0 14 12.657">
  <g id="warning" transform="translate(0 -5.949)">
    <path id="Контур_1211" data-name="Контур 1211" d="M1.109,18.606H12.9a1.1,1.1,0,0,0,.982-1.6L7.985,6.558a1.105,1.105,0,0,0-1.976,0L.115,17A1.112,1.112,0,0,0,1.109,18.606Zm6.82-2.428a.96.96,0,0,1-1.919,0v-.023a.96.96,0,1,1,1.919,0ZM6.449,9.121H7.556a.478.478,0,0,1,.452.587l-.486,4.245a.52.52,0,0,1-1.039,0L6,9.708A.478.478,0,0,1,6.449,9.121Z" fill="#003668"/>
  </g>
</svg>
