<svg xmlns="http://www.w3.org/2000/svg" width="26" height="26" viewBox="0 0 26 26">
  <path id="whatsapp" d="M22.106,6.028A12.888,12.888,0,0,0,1.828,21.576L0,28.25l6.831-1.793a12.845,12.845,0,0,0,6.158,1.567h.006A13.008,13.008,0,0,0,26,15.14a12.935,12.935,0,0,0-3.894-9.112ZM12.994,25.853a10.69,10.69,0,0,1-5.455-1.492l-.389-.232L3.1,25.192l1.079-3.952-.255-.406a10.729,10.729,0,1,1,19.9-5.693A10.828,10.828,0,0,1,12.994,25.853Zm5.873-8.021c-.319-.163-1.9-.94-2.2-1.045s-.511-.162-.725.162-.83,1.045-1.021,1.265-.377.244-.7.081a8.763,8.763,0,0,1-4.382-3.83c-.331-.569.331-.528.946-1.758a.6.6,0,0,0-.029-.563c-.081-.163-.725-1.747-.992-2.391-.261-.627-.528-.54-.725-.551s-.4-.012-.615-.012a1.193,1.193,0,0,0-.859.4,3.618,3.618,0,0,0-1.126,2.687A6.307,6.307,0,0,0,7.754,15.61a14.386,14.386,0,0,0,5.5,4.863c2.043.882,2.844.958,3.865.807a3.3,3.3,0,0,0,2.171-1.532,2.692,2.692,0,0,0,.186-1.532C19.4,18.071,19.187,17.989,18.867,17.833Z" transform="translate(0 -2.25)" fill="#003668"/>
</svg>
